<?xml version="1.0" encoding="utf-8"?>
<!-- Generator: Adobe Illustrator 23.0.2, SVG Export Plug-In . SVG Version: 6.00 Build 0)  -->
<svg version="1.1" id="Layer_1" xmlns="http://www.w3.org/2000/svg" xmlns:xlink="http://www.w3.org/1999/xlink" x="0px" y="0px"
	 viewBox="0 0 50 50" style="enable-background:new 0 0 50 50;" xml:space="preserve">
<style type="text/css">
	.st0{fill:#FEDB00;}
	.st1{fill:#ED018C;}
	.st2{fill:#009EE0;}
</style>
<path class="st0" d="M24.2,50c0,0-14.7-3.3-15.6-18c-0.7-11.4,5.1-16.5,4.9-21.9c0,0,7.4,1.1,4,16C14.5,39,24.2,50,24.2,50z"/>
<path class="st1" d="M28.5,0c0,0,0.9,9.8-5.5,18.3C10.9,34.5,24.2,50,24.2,50s-4.5-12,5.3-25C36.4,15.9,38.2,8.3,28.5,0z"/>
<path class="st2" d="M24.2,50c0,0-4.2-13.5,6.2-21.7c8.1-6.4,8.6-10.7,8.6-10.7s7,9-2.7,16.2C26.6,41.1,24.2,50,24.2,50z"/>
</svg>
