<?xml version="1.0" encoding="utf-8"?>
<!-- Generator: Adobe Illustrator 23.0.2, SVG Export Plug-In . SVG Version: 6.00 Build 0)  -->
<svg version="1.1" id="Layer_1" xmlns="http://www.w3.org/2000/svg" xmlns:xlink="http://www.w3.org/1999/xlink" x="0px" y="0px"
	 viewBox="0 0 200 70.38" style="enable-background:new 0 0 200 70.38;" xml:space="preserve">
<style type="text/css">
	.st0{fill:#4C4F4F;}
	.st1{fill:#FEDB00;}
	.st2{fill:#ED018C;}
	.st3{fill:#009EE0;}
</style>
<g>
	<path class="st0" d="M10.21,24.13H0v29.2h1.4V42.53h8.81c2.75,0,5.06-1,6.69-2.89c1.43-1.67,2.22-3.91,2.22-6.31
		C19.12,28.9,16.33,24.13,10.21,24.13z M10.21,41.17H1.4V25.53h8.81c5.19,0,7.55,4.05,7.55,7.82c0,2.06-0.67,3.97-1.89,5.39
		C14.5,40.33,12.55,41.17,10.21,41.17z"/>
	<path class="st0" d="M31.45,41.51c2.75,0,5.05-0.94,6.68-2.72c1.44-1.58,2.23-3.7,2.23-5.97c0-4.18-2.79-8.69-8.91-8.69H21.24v29.2
		h1.36v-27.8h8.85c5.19,0,7.55,3.79,7.55,7.31c0,1.92-0.67,3.7-1.88,5.03c-1.37,1.49-3.33,2.28-5.67,2.28h-5.9v1.15l13.32,12.04
		h2.05L27.83,41.51H31.45z"/>
	<path class="st0" d="M68.68,28.37l-0.97,1.04c2.38,2.54,3.69,5.83,3.69,9.33c0,3.6-1.39,7-3.92,9.57c-2.56,2.6-5.96,4.03-9.57,4.03
		c-3.59,0-6.97-1.43-9.53-4.03c-2.55-2.59-3.96-5.99-3.96-9.57c0-2.68,0.78-5.25,2.24-7.46l-0.8-1.31c-1.85,2.56-2.84,5.6-2.84,8.77
		c0,3.96,1.55,7.72,4.38,10.58c2.73,2.81,6.56,4.43,10.51,4.43c3.99,0,7.74-1.57,10.55-4.42c2.82-2.86,4.38-6.63,4.38-10.59
		C72.84,34.88,71.37,31.21,68.68,28.37z"/>
	<polygon class="st0" points="88.04,38.32 78.38,24.1 74.95,24.1 74.95,53.37 79.18,53.37 79.18,32.76 86.83,44.13 89.21,44.13 
		96.86,32.76 96.86,53.37 101.04,53.37 101.04,24.1 97.7,24.1 	"/>
	<path class="st0" d="M118.04,23.73c-4.1,0-7.86,1.71-10.53,4.43c-2.63,2.72-4.35,6.44-4.35,10.58s1.71,7.86,4.35,10.58
		c2.68,2.76,6.44,4.43,10.53,4.43c4.14,0,7.86-1.67,10.58-4.43c2.63-2.72,4.35-6.44,4.35-10.58s-1.71-7.86-4.35-10.58
		C125.9,25.44,122.17,23.73,118.04,23.73z M125.6,46.3c-1.96,1.96-4.68,3.18-7.57,3.18c-2.88,0-5.56-1.21-7.48-3.18
		c-1.92-1.92-3.14-4.6-3.14-7.57c0-2.97,1.21-5.64,3.14-7.57c1.92-1.96,4.6-3.18,7.48-3.18c2.88,0,5.6,1.21,7.57,3.18
		c1.88,1.92,3.09,4.56,3.09,7.57C128.7,41.75,127.48,44.38,125.6,46.3z"/>
	<path class="st0" d="M145.57,24.13h-10.49v29.22h10.49c9.57,0,14.38-7.27,14.38-14.59C159.95,31.44,155.14,24.13,145.57,24.13z
		 M145.57,49.12h-6.27V28.35h6.27c6.77,0,10.2,5.23,10.2,10.41C155.77,43.94,152.34,49.12,145.57,49.12z"/>
	<polygon class="st0" points="166.32,40.85 179.58,40.85 179.58,36.58 166.32,36.58 166.32,28.35 179.87,28.35 179.87,24.13 
		162.06,24.13 162.06,53.35 179.91,53.35 179.91,49.12 166.32,49.12 	"/>
	<polygon class="st0" points="186.25,49.12 186.25,24.13 182.02,24.13 182.02,53.35 200,53.35 200,49.12 	"/>
</g>
<path class="st1" d="M58.7,39.64c0,0-11.63-2.6-12.37-14.24c-0.58-9.04,4.05-13.1,3.85-17.35c0,0,5.84,0.88,3.16,12.67
	C51.02,30.91,58.7,39.64,58.7,39.64z"/>
<path class="st2" d="M62.08,0c0,0,0.74,7.77-4.34,14.53c-9.61,12.8,0.96,25.11,0.96,25.11s-3.56-9.53,4.24-19.82
	C68.41,12.61,69.78,6.56,62.08,0z"/>
<path class="st3" d="M58.7,39.64c0,0-3.31-10.71,4.94-17.2c6.43-5.06,6.8-8.5,6.8-8.5s5.58,7.1-2.12,12.85
	C60.57,32.57,58.7,39.64,58.7,39.64z"/>
</svg>
