<?xml version="1.0" encoding="utf-8"?>
<!-- Generator: Adobe Illustrator 23.0.2, SVG Export Plug-In . SVG Version: 6.00 Build 0)  -->
<svg version="1.1" id="Layer_1" xmlns="http://www.w3.org/2000/svg" xmlns:xlink="http://www.w3.org/1999/xlink" x="0px" y="0px"
	 viewBox="0 0 200 70.38" style="enable-background:new 0 0 200 70.38;" xml:space="preserve">
<style type="text/css">
	.st0{fill:#4C4F4F;}
	.st1{fill:#FEDB00;}
	.st2{fill:#ED018C;}
	.st3{fill:#009EE0;}
</style>
<g>
	<path class="st0" d="M10.21,24.13H0v29.2h1.4V42.53h8.81c2.75,0,5.06-1,6.69-2.89c1.43-1.67,2.22-3.91,2.22-6.31
		C19.12,28.9,16.33,24.13,10.21,24.13z M10.21,41.17H1.4V25.53h8.81c5.19,0,7.55,4.05,7.55,7.82c0,2.06-0.67,3.97-1.89,5.39
		C14.5,40.33,12.55,41.17,10.21,41.17z"/>
	<path class="st0" d="M31.45,41.51c2.75,0,5.05-0.94,6.68-2.72c1.44-1.58,2.23-3.7,2.23-5.97c0-4.18-2.79-8.69-8.91-8.69H21.24v29.2
		h1.36v-27.8h8.85c5.19,0,7.55,3.79,7.55,7.31c0,1.92-0.67,3.7-1.88,5.03c-1.37,1.49-3.33,2.28-5.67,2.28h-5.9v1.15l13.32,12.04
		h2.05L27.83,41.51H31.45z"/>
	<path class="st0" d="M68.68,28.37l-0.97,1.04c2.38,2.54,3.69,5.83,3.69,9.33c0,3.6-1.39,7-3.92,9.57c-2.56,2.6-5.96,4.03-9.57,4.03
		c-3.59,0-6.97-1.43-9.53-4.03c-2.55-2.59-3.96-5.99-3.96-9.57c0-2.68,0.78-5.25,2.24-7.46l-0.8-1.31c-1.85,2.56-2.84,5.6-2.84,8.77
		c0,3.96,1.55,7.72,4.38,10.58c2.73,2.81,6.56,4.43,10.51,4.43c3.99,0,7.74-1.57,10.55-4.42c2.82-2.86,4.38-6.63,4.38-10.59
		C72.84,34.88,71.37,31.21,68.68,28.37z"/>
	<polygon class="st0" points="88.04,38.32 78.38,24.1 74.95,24.1 74.95,53.37 79.18,53.37 79.18,32.76 86.83,44.13 89.21,44.13 
		96.86,32.76 96.86,53.37 101.04,53.37 101.04,24.1 97.7,24.1 	"/>
	<path class="st0" d="M118.04,23.73c-4.1,0-7.86,1.71-10.53,4.43c-2.63,2.72-4.35,6.44-4.35,10.58s1.71,7.86,4.35,10.58
		c2.68,2.76,6.44,4.43,10.53,4.43c4.14,0,7.86-1.67,10.58-4.43c2.63-2.72,4.35-6.44,4.35-10.58s-1.71-7.86-4.35-10.58
		C125.9,25.44,122.17,23.73,118.04,23.73z M125.6,46.3c-1.96,1.96-4.68,3.18-7.57,3.18c-2.88,0-5.56-1.21-7.48-3.18
		c-1.92-1.92-3.14-4.6-3.14-7.57c0-2.97,1.21-5.64,3.14-7.57c1.92-1.96,4.6-3.18,7.48-3.18c2.88,0,5.6,1.21,7.57,3.18
		c1.88,1.92,3.09,4.56,3.09,7.57C128.7,41.75,127.48,44.38,125.6,46.3z"/>
	<path class="st0" d="M145.57,24.13h-10.49v29.22h10.49c9.57,0,14.38-7.27,14.38-14.59C159.95,31.44,155.14,24.13,145.57,24.13z
		 M145.57,49.12h-6.27V28.35h6.27c6.77,0,10.2,5.23,10.2,10.41C155.77,43.94,152.34,49.12,145.57,49.12z"/>
	<polygon class="st0" points="166.32,40.85 179.58,40.85 179.58,36.58 166.32,36.58 166.32,28.35 179.87,28.35 179.87,24.13 
		162.06,24.13 162.06,53.35 179.91,53.35 179.91,49.12 166.32,49.12 	"/>
	<polygon class="st0" points="186.25,49.12 186.25,24.13 182.02,24.13 182.02,53.35 200,53.35 200,49.12 	"/>
</g>
<path class="st1" d="M58.7,39.64c0,0-11.63-2.6-12.37-14.24c-0.58-9.04,4.05-13.1,3.85-17.35c0,0,5.84,0.88,3.16,12.67
	C51.02,30.91,58.7,39.64,58.7,39.64z"/>
<path class="st2" d="M62.08,0c0,0,0.74,7.77-4.34,14.53c-9.61,12.8,0.96,25.11,0.96,25.11s-3.56-9.53,4.24-19.82
	C68.41,12.61,69.78,6.56,62.08,0z"/>
<path class="st3" d="M58.7,39.64c0,0-3.31-10.71,4.94-17.2c6.43-5.06,6.8-8.5,6.8-8.5s5.58,7.1-2.12,12.85
	C60.57,32.57,58.7,39.64,58.7,39.64z"/>
<g>
	<g>
		<path class="st0" d="M105.91,70.38h-0.93v-6.48h0.76l2.14,3.15l2.14-3.15h0.74v6.48h-0.93v-4.56l-1.69,2.52h-0.53l-1.69-2.52
			V70.38z"/>
		<path class="st0" d="M114.94,64.81c0.59-0.6,1.42-0.98,2.33-0.98c0.92,0,1.74,0.38,2.34,0.98c0.58,0.6,0.96,1.42,0.96,2.34
			c0,0.92-0.38,1.74-0.96,2.34c-0.6,0.61-1.42,0.98-2.34,0.98c-0.91,0-1.74-0.37-2.33-0.98c-0.58-0.6-0.96-1.42-0.96-2.34
			C113.98,66.23,114.36,65.41,114.94,64.81z M118.95,65.47c-0.43-0.43-1.04-0.7-1.67-0.7s-1.23,0.27-1.66,0.7
			c-0.43,0.43-0.69,1.02-0.69,1.67s0.27,1.25,0.69,1.67c0.43,0.43,1.02,0.7,1.66,0.7s1.24-0.27,1.67-0.7
			c0.42-0.43,0.68-1.01,0.68-1.67C119.63,66.48,119.36,65.9,118.95,65.47z"/>
		<path class="st0" d="M126.13,63.91c2.12,0,3.18,1.62,3.18,3.24c0,1.62-1.06,3.23-3.18,3.23h-2.32v-6.47H126.13z M126.13,69.45
			c1.5,0,2.26-1.15,2.26-2.29c0-1.15-0.76-2.3-2.26-2.3h-1.39v4.6H126.13z"/>
		<path class="st0" d="M133.48,69.45h3.01v0.93h-3.95v-6.47h3.94v0.93h-3v1.82h2.93v0.94h-2.93V69.45z"/>
		<path class="st0" d="M140.65,69.45h3.04v0.93h-3.98v-6.47h0.93V69.45z"/>
	</g>
	<g>
		<path class="st0" d="M156.91,68.52h-2.32c-0.25,0.59-0.57,1.37-0.78,1.91h-1.01l2.6-6.56h0.68l2.6,6.56h-1L156.91,68.52z
			 M154.94,67.64h1.61l-0.8-2.29L154.94,67.64z"/>
		<path class="st0" d="M166.81,66.23c-0.26-1.05-1.26-1.42-2.08-1.42c-1.27,0-2.25,0.99-2.25,2.35c0,1.37,0.98,2.38,2.25,2.38
			c0.8,0,1.65-0.37,2.04-1.31h-2.4v-0.93h3.49c-0.05,0.55-0.09,0.91-0.18,1.12v-0.01c-0.44,1.24-1.78,2.04-2.95,2.04
			c-1.81,0-3.18-1.37-3.18-3.28c0-1.92,1.4-3.28,3.18-3.28c1.24,0,2.74,0.64,3.08,2.36H166.81z"/>
		<path class="st0" d="M171.65,69.45h3.01v0.93h-3.95v-6.47h3.94v0.93h-3v1.82h2.93v0.94h-2.93V69.45z"/>
		<path class="st0" d="M177.52,70.39V63.9l0.72,0.01l3.16,4.56v-4.56h0.93v6.48h-0.74l-3.13-4.52v4.52H177.52z"/>
		<path class="st0" d="M186.1,64.83c0.56-0.58,1.36-0.96,2.24-0.96c1.48,0,2.65,0.93,3.02,2.39h-0.93
			c-0.34-0.97-1.14-1.46-2.09-1.46c-0.62,0-1.18,0.27-1.59,0.69c-0.41,0.43-0.67,1-0.67,1.67c0,0.65,0.26,1.22,0.67,1.65
			c0.41,0.43,0.97,0.69,1.59,0.69c0.98,0,1.81-0.56,2.15-1.54h0.92c-0.37,1.47-1.55,2.47-3.06,2.47c-0.88,0-1.67-0.37-2.24-0.96
			c-0.56-0.59-0.93-1.41-0.93-2.3C185.17,66.24,185.54,65.42,186.1,64.83z"/>
		<path class="st0" d="M195.36,63.91l1.77,2.84l1.77-2.84H200l-2.41,3.83v2.64h-0.94v-2.64l-2.4-3.83H195.36z"/>
	</g>
	<g>
		<path class="st0" d="M4.16,70.39V63.9l0.72,0.01l3.16,4.56v-4.56h0.93v6.48H8.23L5.1,65.86v4.52H4.16z"/>
		<path class="st0" d="M14.16,70.4v-5.56H12.2v-0.94h4.85v0.94h-1.95v5.56H14.16z"/>
		<path class="st0" d="M21.22,69.45h3.01v0.93h-3.95v-6.47h3.94v0.93h-3v1.82h2.93v0.94h-2.93V69.45z"/>
		<path class="st0" d="M28.72,67.1h1.09c0.79,0,1.18-0.56,1.18-1.13c0-0.55-0.39-1.12-1.18-1.12h-1.43v5.53h-0.93v-6.48h2.36
			c1.41,0,2.11,1.04,2.11,2.06c0,0.92-0.56,1.79-1.67,1.98l2.04,2.43h-1.21l-2.36-2.84V67.1z"/>
		<path class="st0" d="M35.53,70.39V63.9l0.72,0.01l3.16,4.56v-4.56h0.93v6.48h-0.74l-3.13-4.52v4.52H35.53z"/>
		<path class="st0" d="M47.67,68.52h-2.32c-0.25,0.59-0.57,1.37-0.78,1.91h-1.01l2.6-6.56h0.68l2.6,6.56h-1L47.67,68.52z
			 M45.7,67.64h1.61l-0.8-2.29L45.7,67.64z"/>
		<path class="st0" d="M54.63,70.4v-5.56h-1.96v-0.94h4.85v0.94h-1.95v5.56H54.63z"/>
		<path class="st0" d="M65.88,64.81c0.59-0.6,1.42-0.98,2.33-0.98c0.92,0,1.74,0.38,2.34,0.98c0.58,0.6,0.96,1.42,0.96,2.34
			c0,0.92-0.38,1.74-0.96,2.34c-0.6,0.61-1.42,0.98-2.34,0.98c-0.91,0-1.74-0.37-2.33-0.98c-0.58-0.6-0.96-1.42-0.96-2.34
			C64.92,66.23,65.3,65.41,65.88,64.81z M69.89,65.47c-0.43-0.43-1.04-0.7-1.67-0.7c-0.64,0-1.23,0.27-1.66,0.7
			c-0.43,0.43-0.69,1.02-0.69,1.67s0.27,1.25,0.69,1.67c0.43,0.43,1.02,0.7,1.66,0.7c0.64,0,1.24-0.27,1.67-0.7
			c0.42-0.43,0.68-1.01,0.68-1.67C70.57,66.48,70.3,65.9,69.89,65.47z"/>
		<path class="st0" d="M74.74,70.39V63.9l0.72,0.01l3.16,4.56v-4.56h0.93v6.48h-0.74l-3.13-4.52v4.52H74.74z"/>
		<path class="st0" d="M86.88,68.52h-2.32c-0.25,0.59-0.57,1.37-0.78,1.91h-1.01l2.6-6.56h0.68l2.6,6.56h-1L86.88,68.52z
			 M84.91,67.64h1.61l-0.8-2.29L84.91,67.64z"/>
		<path class="st0" d="M92.83,69.45h3.04v0.93h-3.98v-6.47h0.93V69.45z"/>
		<rect y="63.91" class="st0" width="0.93" height="6.47"/>
		<rect x="60.75" y="63.91" class="st0" width="0.93" height="6.47"/>
	</g>
</g>
</svg>
